<svg width="38" height="38" viewBox="0 0 38 38" fill="none" xmlns="http://www.w3.org/2000/svg">
<path d="M11.7251 33C11.4282 33 11.1434 32.8771 10.9334 32.6584C10.7234 32.4396 10.6054 32.143 10.6054 31.8336V25.6081C9.99111 25.9134 9.31029 26.0441 8.63188 25.9872C8.05745 25.9432 7.49938 25.7679 6.9974 25.4737C6.49541 25.1795 6.06185 24.7737 5.72757 24.2851C5.39329 23.7965 5.1665 23.2372 5.06335 22.6469C4.96021 22.0566 4.98323 21.4499 5.1308 20.87C5.27836 20.29 5.54682 19.7511 5.91709 19.2915C6.28736 18.832 6.75033 18.463 7.27304 18.2111C7.79576 17.9591 8.36537 17.8302 8.94134 17.8336C9.51731 17.837 10.0855 17.9726 10.6054 18.2308V12.0053C10.6054 11.6959 10.7234 11.3993 10.9334 11.1805C11.1434 10.9618 11.4282 10.8389 11.7251 10.8389H18.2616C17.9685 10.199 17.843 9.48984 17.8976 8.78317C17.9398 8.18481 18.1082 7.6035 18.3906 7.0806C18.673 6.55771 19.0626 6.10608 19.5316 5.75788C20.0007 5.40967 20.5377 5.17344 21.1043 5.06599C21.671 4.95855 22.2534 4.98254 22.8102 5.13624C23.3669 5.28995 23.8843 5.5696 24.3255 5.9553C24.7667 6.34099 25.1209 6.82324 25.3628 7.36773C25.6047 7.91222 25.7284 8.50556 25.7252 9.10552C25.7219 9.70548 25.5917 10.2973 25.3438 10.8389H31.8803C32.1772 10.8389 32.462 10.9618 32.672 11.1805C32.882 11.3993 33 11.6959 33 12.0053V18.2308C32.3857 17.9255 31.7049 17.7948 31.0265 17.8517C30.452 17.8957 29.894 18.071 29.392 18.3652C28.89 18.6594 28.4564 19.0652 28.1222 19.5538C27.7879 20.0424 27.5611 20.6017 27.458 21.192C27.3548 21.7823 27.3778 22.389 27.5254 22.9689C27.673 23.5489 27.9414 24.0878 28.3117 24.5474C28.682 25.0069 29.1449 25.3759 29.6676 25.6278C30.1904 25.8798 30.76 26.0087 31.3359 26.0053C31.9119 26.0019 32.4801 25.8663 33 25.6081V31.8336C33 32.143 32.882 32.4396 32.672 32.6584C32.462 32.8771 32.1772 33 31.8803 33H11.7251Z" stroke="white" stroke-width="2" stroke-linecap="round" stroke-linejoin="round"/>
</svg>
