<svg width="100" height="100" viewBox="0 0 100 100" fill="none" xmlns="http://www.w3.org/2000/svg">
<path d="M75.3929 61.1516C75.3929 75.0424 64.1322 86.3031 50.2414 86.3031C36.3506 86.3031 25.0898 75.0424 25.0898 61.1516C25.0898 54.2284 28.2962 46.6847 33.3647 38.5228C37.6559 31.6126 43.1346 24.4808 48.7948 17.1129C49.2645 16.5015 49.7353 15.8886 50.2069 15.274C51.5177 17.0506 52.8404 18.8201 54.1576 20.5822C58.6513 26.5939 63.0813 32.5204 66.7621 38.3532C71.9673 46.6017 75.3929 54.2525 75.3929 61.1516Z" stroke="white" stroke-width="4"/>
<path d="M76.4242 62.1213C76.4242 76.5812 64.7022 88.3031 50.2424 88.3031C35.7825 88.3031 24.0605 76.5812 24.0605 62.1213C24.0605 47.6615 29.8787 62.8486 51.4545 51.4546C73.0302 40.0607 76.4242 47.6615 76.4242 62.1213Z" fill="white"/>
</svg>
